<?xml version="1.0" encoding="UTF-8"?>
<svg id="Layer_1" xmlns="http://www.w3.org/2000/svg" viewBox="0 0 866.79 819.54">
  <defs>
    <style>
      .cls-1 {
        fill: #b1babe;
        font-size: 97.47px;
      }

      .cls-1, .cls-2 {
        font-family: Futura-Medium, Futura;
        font-weight: 500;
      }

      .cls-3 {
        fill: #e0649f;
      }

      .cls-4 {
        fill: #fff;
      }

      .cls-5 {
        letter-spacing: -.08em;
      }

      .cls-6 {
        letter-spacing: -.03em;
      }

      .cls-7 {
        letter-spacing: -.02em;
      }

      .cls-8 {
        letter-spacing: -.02em;
      }

      .cls-9 {
        letter-spacing: -.02em;
      }

      .cls-10 {
        letter-spacing: -.02em;
      }

      .cls-11 {
        letter-spacing: -.02em;
      }

      .cls-12 {
        letter-spacing: -.02em;
      }

      .cls-13 {
        letter-spacing: -.02em;
      }

      .cls-14 {
        letter-spacing: -.02em;
      }

      .cls-15 {
        letter-spacing: -.02em;
      }

      .cls-16 {
        letter-spacing: -.02em;
      }

      .cls-17 {
        letter-spacing: -.02em;
      }

      .cls-18 {
        letter-spacing: -.01em;
      }

      .cls-19 {
        letter-spacing: -.04em;
      }

      .cls-20 {
        letter-spacing: -.04em;
      }

      .cls-21 {
        letter-spacing: -.04em;
      }

      .cls-22 {
        letter-spacing: -.03em;
      }

      .cls-23 {
        letter-spacing: 0em;
      }

      .cls-24 {
        letter-spacing: 0em;
      }

      .cls-25 {
        letter-spacing: 0em;
      }

      .cls-26 {
        letter-spacing: -.01em;
      }

      .cls-27 {
        letter-spacing: -.01em;
      }

      .cls-28 {
        letter-spacing: -.01em;
      }

      .cls-29 {
        letter-spacing: -.01em;
      }

      .cls-30 {
        letter-spacing: .04em;
      }

      .cls-31 {
        letter-spacing: .03em;
      }

      .cls-2 {
        fill: #df639e;
        font-size: 47.99px;
      }

      .cls-32 {
        letter-spacing: 0em;
      }
    </style>
  </defs>
  <path class="cls-4" d="M165.9.08C73.02-2.88-2.88,73.02.08,165.9c2.68,84.11,71.19,152.62,155.3,155.3,92.88,2.96,168.78-72.94,165.82-165.82C318.52,71.27,250.01,2.77,165.9.08ZM160.64,269.95c-60.37,0-109.31-48.94-109.31-109.31s48.94-109.31,109.31-109.31,109.31,48.94,109.31,109.31-48.94,109.31-109.31,109.31Z"/>
  <path class="cls-4" d="M160.64,269.95c-62.97,0-113.51-53.25-109.03-117.19,3.83-54.64,48.63-98.51,103.34-101.28,32.43-1.64,61.96,10.86,82.98,31.87l36.3-36.3C244.02,16.84,201.83-1.4,155.39.08,70.2,2.8,1.28,72.98.02,158.2c-1.33,89.84,71.09,163.09,160.63,163.09,44.36,0,84.52-17.98,113.59-47.05l-36.3-36.3c-19.78,19.78-47.11,32.01-77.29,32.01Z"/>
  <path class="cls-3" d="M381.82,270.77c-61.97,0-111.7-52.4-107.29-115.31,3.77-53.77,47.86-96.94,101.69-99.66,30.29-1.53,58.01,9.47,78.43,28.27,1.85,1.7,4.73,1.59,6.5-.19l29.03-29.03c1.91-1.91,1.82-5.01-.15-6.87-29.44-27.66-69.49-44.17-113.39-42.77-81.89,2.62-148.96,68.68-152.73,150.53-4.17,90.7,68.13,165.55,157.91,165.55,42.21,0,80.55-16.54,108.9-43.49,1.6-1.52,1.6-4.09.04-5.65l-30.13-30.13c-1.52-1.52-3.96-1.52-5.54-.05-19.21,17.87-44.96,28.81-73.26,28.81Z"/>
  <path class="cls-4" d="M275.62,165.35h44.29c.76,0,1.38.62,1.38,1.38v153.06c0,.83-.67,1.5-1.5,1.5h-44.05c-.83,0-1.5-.67-1.5-1.5v-153.06c0-.76.62-1.38,1.38-1.38Z"/>
  <text class="cls-2" transform="translate(313.94 792.09) rotate(-90)"><tspan class="cls-30" x="0" y="0">A</tspan><tspan class="cls-24" x="37.43" y="0">A</tspan><tspan class="cls-20" x="72.65" y="0">R</tspan><tspan class="cls-27" x="99.84" y="0">O</tspan><tspan x="142.13" y="0">N </tspan><tspan class="cls-25" x="197.45" y="0">C</tspan><tspan class="cls-21" x="230.85" y="0">R</tspan><tspan class="cls-26" x="258.04" y="0">O</tspan><tspan class="cls-25" x="300.31" y="0">C</tspan><tspan class="cls-29" x="333.71" y="0">K</tspan><tspan class="cls-32" x="365.01" y="0">E</tspan><tspan class="cls-31" x="392.43" y="0">T</tspan><tspan x="417.09" y="0">T</tspan></text>
  <text class="cls-1" transform="translate(351.44 557.5)"><tspan class="cls-18" x="0" y="0">A</tspan><tspan class="cls-22" x="70.77" y="0">R</tspan><tspan class="cls-8" x="126.62" y="0">T</tspan><tspan class="cls-6" x="171.86" y="0">I</tspan><tspan class="cls-23" x="198.16" y="0">S</tspan><tspan class="cls-5" x="254.46" y="0">T</tspan><tspan x="293.73" y="0">.</tspan><tspan class="cls-9" x="0" y="116.96">D</tspan><tspan class="cls-19" x="68.82" y="116.96">E</tspan><tspan class="cls-15" x="120.31" y="116.96">S</tspan><tspan class="cls-7" x="175.23" y="116.96">I</tspan><tspan class="cls-12" x="202.2" y="116.96">G</tspan><tspan class="cls-16" x="282.11" y="116.96">N</tspan><tspan class="cls-13" x="362.53" y="116.96">E</tspan><tspan class="cls-28" x="415.93" y="116.96">R</tspan><tspan x="473.28" y="116.96">.</tspan><tspan class="cls-14" x="0" y="233.92">E</tspan><tspan class="cls-11" x="53.4" y="233.92">N</tspan><tspan class="cls-10" x="133.72" y="233.92">G</tspan><tspan class="cls-17" x="213.8" y="233.92">I</tspan><tspan class="cls-16" x="240.7" y="233.92">N</tspan><tspan class="cls-13" x="321.12" y="233.92">EE</tspan><tspan class="cls-28" x="427.93" y="233.92">R</tspan><tspan x="485.27" y="233.92">.</tspan></text>
</svg>