<?xml version="1.0" encoding="UTF-8"?>
<svg id="Layer_1" xmlns="http://www.w3.org/2000/svg" viewBox="0 0 1410.54 882.02">
  <defs>
    <style>
      .cls-1 {
        fill: #180f15;
      }

      .cls-2 {
        fill: #e0649f;
      }

      .cls-3 {
        fill: #fff;
      }

      .cls-4, .cls-5 {
        fill: #df639e;
      }

      .cls-6 {
        letter-spacing: -.04em;
      }

      .cls-7 {
        letter-spacing: -.04em;
      }

      .cls-8 {
        letter-spacing: 0em;
      }

      .cls-9 {
        letter-spacing: 0em;
      }

      .cls-10 {
        letter-spacing: -.01em;
      }

      .cls-11 {
        letter-spacing: -.01em;
      }

      .cls-12 {
        letter-spacing: -.01em;
      }

      .cls-13 {
        letter-spacing: .04em;
      }

      .cls-14 {
        letter-spacing: .03em;
      }

      .cls-5 {
        font-family: Futura-Medium, Futura;
        font-size: 47.99px;
        font-weight: 500;
      }

      .cls-15 {
        letter-spacing: 0em;
      }
    </style>
  </defs>
  <path class="cls-3" d="M165.9,20.4C73.02,17.44-2.88,93.34.08,186.22c2.68,84.11,71.19,152.62,155.3,155.3,92.88,2.96,168.78-72.94,165.82-165.82-2.69-84.11-71.19-152.62-155.3-155.3ZM160.64,290.27c-60.37,0-109.31-48.94-109.31-109.31s48.94-109.31,109.31-109.31,109.31,48.94,109.31,109.31-48.94,109.31-109.31,109.31Z"/>
  <path class="cls-3" d="M160.64,290.27c-62.97,0-113.51-53.25-109.03-117.19,3.83-54.64,48.63-98.51,103.34-101.28,32.43-1.64,61.96,10.86,82.98,31.87l36.3-36.3c-30.21-30.21-72.41-48.45-118.85-46.97C70.2,23.12,1.28,93.3.02,178.52c-1.33,89.84,71.09,163.09,160.63,163.09,44.36,0,84.52-17.98,113.59-47.05l-36.3-36.3c-19.78,19.78-47.11,32.01-77.29,32.01Z"/>
  <path class="cls-2" d="M381.82,291.09c-61.97,0-111.7-52.4-107.29-115.31,3.77-53.77,47.86-96.94,101.69-99.66,30.29-1.53,58.01,9.47,78.43,28.27,1.85,1.7,4.73,1.59,6.5-.19l29.03-29.03c1.91-1.91,1.82-5.01-.15-6.87-29.44-27.66-69.49-44.17-113.39-42.77-81.89,2.62-148.96,68.68-152.73,150.53-4.17,90.7,68.13,165.55,157.91,165.55,42.21,0,80.55-16.54,108.9-43.49,1.6-1.52,1.6-4.09.04-5.65l-30.13-30.13c-1.52-1.52-3.96-1.52-5.54-.05-19.21,17.87-44.96,28.81-73.26,28.81Z"/>
  <path class="cls-3" d="M275.62,185.67h44.29c.76,0,1.38.62,1.38,1.38v153.06c0,.83-.67,1.5-1.5,1.5h-44.05c-.83,0-1.5-.67-1.5-1.5v-153.06c0-.76.62-1.38,1.38-1.38Z"/>
  <rect class="cls-4" x="536.02" y="226.92" width="865.08" height="400"/>
  <rect class="cls-1" x="646.68" y="138.11" width="643.76" height="605.81" transform="translate(559.52 -541.48) rotate(42.92)"/>
  <text class="cls-5" transform="translate(313.94 812.41) rotate(-90)"><tspan class="cls-13" x="0" y="0">A</tspan><tspan class="cls-8" x="37.43" y="0">A</tspan><tspan class="cls-6" x="72.65" y="0">R</tspan><tspan class="cls-11" x="99.84" y="0">O</tspan><tspan x="142.13" y="0">N </tspan><tspan class="cls-9" x="197.45" y="0">C</tspan><tspan class="cls-7" x="230.85" y="0">R</tspan><tspan class="cls-10" x="258.04" y="0">O</tspan><tspan class="cls-9" x="300.31" y="0">C</tspan><tspan class="cls-12" x="333.71" y="0">K</tspan><tspan class="cls-15" x="365.01" y="0">E</tspan><tspan class="cls-14" x="392.43" y="0">T</tspan><tspan x="417.09" y="0">T</tspan></text>
</svg>